# xmcd CD database file
#
# Track frame offsets:
#	150
#	23867
#	47177
#	65869
#	89159
#	108828
#	129253
#	148719
#	171417
#	195495
#	217351
#	241137
#	262392
#	280337
#	300939
#
# Disc length: 4297 seconds
#
# Revision: 0
# Processed by: cddbd v1.5.1PL0 Copyright (c) Steve Scherf et al.
# Submitted via: CDex 1.51
#
DISCID=ec10c70f
DTITLE=Varios Artistas - Salsa Sensual Vol.4
DYEAR=1991
DGENRE=Salsa
TTITLE0=Llegaste Tarde 
TTITLE1=Obsecionado
TTITLE2=Si Me Necesitas
TTITLE3=Fantasia Herida
TTITLE4=Dejala
TTITLE5=Nada Sin Ti
TTITLE6=Quiero Volver A Ti
TTITLE7=Juguete De Nadie
TTITLE8=Todo Me HueleA Ti
TTITLE9=No Me Acostumbro
TTITLE10=Si Tu No Estas
TTITLE11=Talento Tv
TTITLE12=Padre E Hijo
TTITLE13=Cazi Un Hechizo
TTITLE14=Hazme El Amor
EXTD=YEAR: 1991
EXTT0=
EXTT1=
EXTT2=
EXTT3=
EXTT4=
EXTT5=
EXTT6=
EXTT7=
EXTT8=
EXTT9=
EXTT10=
EXTT11=
EXTT12=
EXTT13=
EXTT14=
PLAYORDER=
